<svg id="logo" width="166" height="46" viewBox="0 0 166 46" fill="none" xmlns="http://www.w3.org/2000/svg">
<path d="M6.03408 26H0.761353L8.79544 2.72729H15.1364L23.1591 26H17.8864L12.0568 8.04548H11.875L6.03408 26ZM5.70453 16.8523H18.1591V20.6932H5.70453V16.8523Z" fill="#B22B29"/>
<path d="M36.1875 20.6478L40.9148 8.54548H44.5966L37.7898 26H34.5739L27.9261 8.54548H31.5966L36.1875 20.6478ZM30.4943 8.54548V26H25.8693V8.54548H30.4943ZM42.1193 26V8.54548H46.6875V26H42.1193Z" fill="#B22B29"/>
<path d="M50.4318 26V8.54548H65.6932V26H61.0682V12.3523H55V26H50.4318Z" fill="#B22B29"/>
<path d="M77.5114 26.3409C75.7159 26.3409 74.1704 25.9773 72.875 25.25C71.5871 24.5152 70.5947 23.4773 69.8977 22.1364C69.2008 20.7879 68.8523 19.1932 68.8523 17.3523C68.8523 15.5568 69.2008 13.9811 69.8977 12.625C70.5947 11.269 71.5758 10.2121 72.8409 9.45457C74.1136 8.69699 75.6061 8.3182 77.3182 8.3182C78.4697 8.3182 79.5417 8.50381 80.5341 8.87502C81.5341 9.23866 82.4053 9.7879 83.1477 10.5227C83.8977 11.2576 84.4811 12.1818 84.8977 13.2955C85.3144 14.4015 85.5227 15.697 85.5227 17.1818V18.5114H70.7841V15.5114H80.9659C80.9659 14.8144 80.8144 14.197 80.5114 13.6591C80.2083 13.1212 79.7879 12.7008 79.25 12.3977C78.7197 12.0871 78.1023 11.9318 77.3977 11.9318C76.6629 11.9318 76.0114 12.1023 75.4432 12.4432C74.8826 12.7765 74.4432 13.2273 74.125 13.7955C73.8068 14.3561 73.6439 14.9811 73.6364 15.6705V18.5228C73.6364 19.3864 73.7954 20.1326 74.1136 20.7614C74.4394 21.3902 74.8977 21.875 75.4886 22.2159C76.0795 22.5568 76.7803 22.7273 77.5909 22.7273C78.1288 22.7273 78.6212 22.6515 79.0682 22.5C79.5151 22.3485 79.8977 22.1212 80.2159 21.8182C80.5341 21.5152 80.7765 21.144 80.9432 20.7046L85.4204 21C85.1932 22.0758 84.7273 23.0152 84.0227 23.8182C83.3258 24.6137 82.4242 25.2349 81.3182 25.6818C80.2197 26.1212 78.9508 26.3409 77.5114 26.3409Z" fill="#B22B29"/>
<path d="M88.6818 32.5455V8.54548H93.4545V11.4773H93.6704C93.8826 11.0076 94.1894 10.5303 94.5909 10.0455C95 9.55305 95.5303 9.14396 96.1818 8.8182C96.8409 8.48487 97.6591 8.3182 98.6364 8.3182C99.9091 8.3182 101.083 8.65154 102.159 9.3182C103.235 9.9773 104.095 10.9735 104.739 12.3068C105.383 13.6326 105.705 15.2955 105.705 17.2955C105.705 19.2424 105.39 20.8864 104.761 22.2273C104.14 23.5606 103.292 24.572 102.216 25.2614C101.148 25.9432 99.9508 26.2841 98.625 26.2841C97.6856 26.2841 96.8864 26.1288 96.2273 25.8182C95.5758 25.5076 95.0417 25.1174 94.625 24.6478C94.2083 24.1705 93.8901 23.6894 93.6704 23.2046H93.5227V32.5455H88.6818ZM93.4204 17.2728C93.4204 18.3106 93.5644 19.2159 93.8523 19.9887C94.1401 20.7614 94.5568 21.3637 95.1023 21.7955C95.6477 22.2197 96.3106 22.4318 97.0909 22.4318C97.8788 22.4318 98.5454 22.2159 99.0909 21.7841C99.6364 21.3447 100.049 20.7387 100.33 19.9659C100.617 19.1856 100.761 18.2879 100.761 17.2728C100.761 16.2652 100.621 15.3788 100.341 14.6137C100.061 13.8485 99.6477 13.25 99.1023 12.8182C98.5568 12.3864 97.8864 12.1705 97.0909 12.1705C96.303 12.1705 95.6364 12.3788 95.0909 12.7955C94.553 13.2121 94.1401 13.8031 93.8523 14.5682C93.5644 15.3334 93.4204 16.2349 93.4204 17.2728Z" fill="#B22B29"/>
<path d="M108.932 26V8.54548H113.773V15.3182H115.136L119.886 8.54548H125.568L119.398 17.2046L125.636 26H119.886L115.58 19.8068H113.773V26H108.932Z" fill="#B22B29"/>
<path d="M132.307 19.6137L138.591 8.54548H143.364V26H138.75V14.8977L132.489 26H127.682V8.54548H132.307V19.6137Z" fill="#B22B29"/>
<path d="M159.392 15.3409V19.1478H150.278V15.3409H159.392ZM151.869 8.54548V26H147.244V8.54548H151.869ZM162.426 8.54548V26H157.835V8.54548H162.426Z" fill="#B22B29"/>
<path d="M0 40H13V41H0V40Z" fill="#070707"/>
<path d="M19.5689 44V37.4545H22.1896C22.6712 37.4545 23.0728 37.5259 23.3945 37.6687C23.7163 37.8114 23.9581 38.0096 24.12 38.2631C24.282 38.5145 24.3629 38.8043 24.3629 39.1324C24.3629 39.3881 24.3118 39.6129 24.2095 39.8068C24.1073 39.9986 23.9666 40.1562 23.7877 40.2798C23.6108 40.4013 23.4084 40.4876 23.1804 40.5387V40.6026C23.4297 40.6133 23.663 40.6836 23.8803 40.8136C24.0998 40.9435 24.2777 41.1257 24.4141 41.3601C24.5504 41.5923 24.6186 41.8693 24.6186 42.191C24.6186 42.5383 24.5323 42.8484 24.3597 43.1211C24.1893 43.3917 23.9368 43.6058 23.6023 43.7635C23.2678 43.9212 22.8555 44 22.3654 44H19.5689ZM20.9528 42.8686H22.081C22.4666 42.8686 22.7479 42.7951 22.9247 42.6481C23.1016 42.4989 23.19 42.3008 23.19 42.0536C23.19 41.8725 23.1463 41.7127 23.059 41.5742C22.9716 41.4357 22.847 41.327 22.685 41.2482C22.5252 41.1694 22.3345 41.13 22.1129 41.13H20.9528V42.8686ZM20.9528 40.1935H21.9787C22.1683 40.1935 22.3367 40.1605 22.4837 40.0944C22.6328 40.0263 22.75 39.9304 22.8352 39.8068C22.9226 39.6832 22.9663 39.5351 22.9663 39.3626C22.9663 39.1261 22.8821 38.9354 22.7138 38.7905C22.5476 38.6456 22.3111 38.5731 22.0043 38.5731H20.9528V40.1935Z" fill="#070707"/>
<path d="M27.33 39.8739H28.8896C29.4095 39.8739 29.857 39.9581 30.232 40.1264C30.6091 40.2926 30.8999 40.528 31.1045 40.8327C31.309 41.1374 31.4102 41.4964 31.4081 41.9098C31.4102 42.321 31.309 42.6843 31.1045 42.9996C30.8999 43.3128 30.6091 43.5579 30.232 43.7347C29.857 43.9116 29.4095 44 28.8896 44H26.4447V37.4545H27.8254V42.8878H28.8896C29.1389 42.8878 29.3488 42.843 29.5192 42.7535C29.6897 42.6619 29.8186 42.5415 29.906 42.3924C29.9955 42.2411 30.0391 42.076 30.037 41.897C30.0391 41.6371 29.9411 41.4176 29.743 41.2386C29.5469 41.0575 29.2625 40.967 28.8896 40.967H27.33V39.8739ZM33.3225 37.4545V44H31.9418V37.4545H33.3225Z" fill="#070707"/>
<path d="M35.3611 44V37.4545H39.7045V38.5955H36.745V39.8739H37.8092C38.327 39.8739 38.7734 39.9581 39.1484 40.1264C39.5255 40.2926 39.8164 40.528 40.0209 40.8327C40.2254 41.1374 40.3277 41.4964 40.3277 41.9098C40.3277 42.321 40.2254 42.6843 40.0209 42.9996C39.8164 43.3128 39.5255 43.5579 39.1484 43.7347C38.7734 43.9116 38.327 44 37.8092 44H35.3611ZM36.745 42.8878H37.8092C38.0564 42.8878 38.2652 42.843 38.4357 42.7535C38.6061 42.6619 38.735 42.5415 38.8224 42.3924C38.9119 42.2411 38.9566 42.076 38.9566 41.897C38.9566 41.6371 38.8575 41.4176 38.6594 41.2386C38.4634 41.0575 38.18 40.967 37.8092 40.967H36.745V42.8878Z" fill="#070707"/>
<path d="M48.1383 40.7273C48.1383 41.441 48.003 42.0483 47.7324 42.549C47.464 43.0497 47.0975 43.4322 46.633 43.6964C46.1706 43.9584 45.6507 44.0895 45.0733 44.0895C44.4917 44.0895 43.9696 43.9574 43.5073 43.6932C43.0449 43.429 42.6795 43.0465 42.411 42.5458C42.1426 42.0451 42.0083 41.4389 42.0083 40.7273C42.0083 40.0135 42.1426 39.4062 42.411 38.9055C42.6795 38.4048 43.0449 38.0234 43.5073 37.7614C43.9696 37.4971 44.4917 37.365 45.0733 37.365C45.6507 37.365 46.1706 37.4971 46.633 37.7614C47.0975 38.0234 47.464 38.4048 47.7324 38.9055C48.003 39.4062 48.1383 40.0135 48.1383 40.7273ZM46.7353 40.7273C46.7353 40.2649 46.666 39.875 46.5275 39.5575C46.3912 39.24 46.1983 38.9993 45.949 38.8352C45.6998 38.6712 45.4078 38.5891 45.0733 38.5891C44.7388 38.5891 44.4469 38.6712 44.1976 38.8352C43.9483 38.9993 43.7544 39.24 43.6159 39.5575C43.4796 39.875 43.4114 40.2649 43.4114 40.7273C43.4114 41.1896 43.4796 41.5795 43.6159 41.897C43.7544 42.2145 43.9483 42.4552 44.1976 42.6193C44.4469 42.7834 44.7388 42.8654 45.0733 42.8654C45.4078 42.8654 45.6998 42.7834 45.949 42.6193C46.1983 42.4552 46.3912 42.2145 46.5275 41.897C46.666 41.5795 46.7353 41.1896 46.7353 40.7273Z" fill="#070707"/>
<path d="M50.0634 44V37.4545H52.6458C53.1423 37.4545 53.5652 37.5493 53.9146 37.739C54.2641 37.9265 54.5304 38.1875 54.7137 38.522C54.899 38.8544 54.9917 39.2379 54.9917 39.6726C54.9917 40.1072 54.898 40.4908 54.7105 40.8231C54.523 41.1555 54.2513 41.4144 53.8955 41.5998C53.5418 41.7851 53.1135 41.8778 52.6107 41.8778H50.9647V40.7688H52.3869C52.6533 40.7688 52.8727 40.723 53.0453 40.6314C53.22 40.5376 53.35 40.4087 53.4352 40.2447C53.5226 40.0785 53.5663 39.8878 53.5663 39.6726C53.5663 39.4552 53.5226 39.2656 53.4352 39.1037C53.35 38.9396 53.22 38.8128 53.0453 38.7234C52.8706 38.6317 52.649 38.5859 52.3806 38.5859H51.4473V44H50.0634Z" fill="#070707"/>
<path d="M65.3379 37.4545V44H63.97V38.5795H61.3237V44H59.9558V37.4545H65.3379Z" fill="#070707"/>
<path d="M67.5554 44V37.4545H70.1378C70.6343 37.4545 71.0572 37.5493 71.4066 37.739C71.7561 37.9265 72.0224 38.1875 72.2056 38.522C72.391 38.8544 72.4837 39.2379 72.4837 39.6726C72.4837 40.1072 72.3899 40.4908 72.2024 40.8231C72.0149 41.1555 71.7433 41.4144 71.3875 41.5998C71.0338 41.7851 70.6055 41.8778 70.1027 41.8778H68.4567V40.7688H69.8789C70.1453 40.7688 70.3647 40.723 70.5373 40.6314C70.712 40.5376 70.842 40.4087 70.9272 40.2447C71.0146 40.0785 71.0583 39.8878 71.0583 39.6726C71.0583 39.4552 71.0146 39.2656 70.9272 39.1037C70.842 38.9396 70.712 38.8128 70.5373 38.7234C70.3626 38.6317 70.141 38.5859 69.8725 38.5859H68.9393V44H67.5554Z" fill="#070707"/>
<path d="M80.2975 40.7273C80.2975 41.441 80.1622 42.0483 79.8916 42.549C79.6231 43.0497 79.2567 43.4322 78.7922 43.6964C78.3298 43.9584 77.8099 44.0895 77.2325 44.0895C76.6508 44.0895 76.1288 43.9574 75.6665 43.6932C75.2041 43.429 74.8387 43.0465 74.5702 42.5458C74.3018 42.0451 74.1675 41.4389 74.1675 40.7273C74.1675 40.0135 74.3018 39.4062 74.5702 38.9055C74.8387 38.4048 75.2041 38.0234 75.6665 37.7614C76.1288 37.4971 76.6508 37.365 77.2325 37.365C77.8099 37.365 78.3298 37.4971 78.7922 37.7614C79.2567 38.0234 79.6231 38.4048 79.8916 38.9055C80.1622 39.4062 80.2975 40.0135 80.2975 40.7273ZM78.8944 40.7273C78.8944 40.2649 78.8252 39.875 78.6867 39.5575C78.5503 39.24 78.3575 38.9993 78.1082 38.8352C77.8589 38.6712 77.567 38.5891 77.2325 38.5891C76.898 38.5891 76.6061 38.6712 76.3568 38.8352C76.1075 38.9993 75.9136 39.24 75.7751 39.5575C75.6388 39.875 75.5706 40.2649 75.5706 40.7273C75.5706 41.1896 75.6388 41.5795 75.7751 41.897C75.9136 42.2145 76.1075 42.4552 76.3568 42.6193C76.6061 42.7834 76.898 42.8654 77.2325 42.8654C77.567 42.8654 77.8589 42.7834 78.1082 42.6193C78.3575 42.4552 78.5503 42.2145 78.6867 41.897C78.8252 41.5795 78.8944 41.1896 78.8944 40.7273Z" fill="#070707"/>
<path d="M84.8114 38.1577H86.2752C86.7993 38.1577 87.2638 38.2685 87.6686 38.49C88.0756 38.7116 88.3941 39.0238 88.6243 39.4265C88.8565 39.827 88.9726 40.2979 88.9726 40.8391C88.9726 41.3633 88.8565 41.8203 88.6243 42.2102C88.3941 42.6001 88.0756 42.9038 87.6686 43.1211C87.2638 43.3363 86.7993 43.4439 86.2752 43.4439H84.8114C84.2851 43.4439 83.8185 43.3373 83.4115 43.1243C83.0046 42.9091 82.685 42.6065 82.4527 42.2166C82.2226 41.8267 82.1076 41.3665 82.1076 40.8359C82.1076 40.2947 82.2237 39.8239 82.4559 39.4233C82.6903 39.0206 83.011 38.7095 83.4179 38.49C83.8249 38.2685 84.2894 38.1577 84.8114 38.1577ZM84.8114 39.3146C84.5301 39.3146 84.2819 39.3711 84.0667 39.484C83.8537 39.5948 83.6875 39.7631 83.5681 39.989C83.4488 40.2148 83.3892 40.4971 83.3892 40.8359C83.3892 41.1598 83.4499 41.4293 83.5713 41.6445C83.6949 41.8597 83.8632 42.0206 84.0763 42.1271C84.2894 42.2337 84.5344 42.2869 84.8114 42.2869H86.2848C86.5639 42.2869 86.8078 42.2326 87.0166 42.1239C87.2276 42.0153 87.3906 41.8533 87.5056 41.6381C87.6228 41.4229 87.6814 41.1566 87.6814 40.8391C87.6814 40.5003 87.6228 40.218 87.5056 39.9922C87.3906 39.7663 87.2276 39.5969 87.0166 39.484C86.8078 39.3711 86.5639 39.3146 86.2848 39.3146H84.8114ZM86.1985 37.3395V44.2685H84.8849V37.3395H86.1985Z" fill="#070707"/>
<path d="M90.8922 44V37.4545H95.3027V38.5955H92.276V40.1552H95.0757V41.2962H92.276V42.859H95.3154V44H90.8922Z" fill="#070707"/>
<path d="M103.078 39.7461H101.678C101.653 39.565 101.6 39.4041 101.522 39.2635C101.443 39.1207 101.342 38.9993 101.218 38.8991C101.094 38.799 100.952 38.7223 100.79 38.669C100.63 38.6158 100.456 38.5891 100.269 38.5891C99.93 38.5891 99.6349 38.6733 99.3835 38.8416C99.1321 39.0078 98.9371 39.2507 98.7986 39.5703C98.6601 39.8878 98.5909 40.2734 98.5909 40.7273C98.5909 41.1939 98.6601 41.5859 98.7986 41.9034C98.9393 42.2209 99.1353 42.4606 99.3867 42.6225C99.6381 42.7844 99.929 42.8654 100.259 42.8654C100.445 42.8654 100.616 42.8409 100.774 42.7919C100.934 42.7429 101.075 42.6715 101.199 42.5778C101.322 42.4819 101.425 42.3658 101.506 42.2294C101.589 42.093 101.646 41.9375 101.678 41.7628L103.078 41.7692C103.042 42.0696 102.951 42.3594 102.806 42.6385C102.664 42.9155 102.471 43.1637 102.228 43.3832C101.987 43.6005 101.7 43.7731 101.365 43.9009C101.033 44.0266 100.657 44.0895 100.237 44.0895C99.653 44.0895 99.131 43.9574 98.6708 43.6932C98.2127 43.429 97.8505 43.0465 97.5841 42.5458C97.3199 42.0451 97.1878 41.4389 97.1878 40.7273C97.1878 40.0135 97.3221 39.4062 97.5905 38.9055C97.859 38.4048 98.2234 38.0234 98.6836 37.7614C99.1438 37.4971 99.6616 37.365 100.237 37.365C100.616 37.365 100.968 37.4183 101.292 37.5248C101.618 37.6314 101.906 37.7869 102.158 37.9915C102.409 38.1939 102.614 38.4421 102.771 38.7361C102.931 39.0302 103.033 39.3668 103.078 39.7461Z" fill="#070707"/>
<path d="M110.746 39.7461H109.346C109.32 39.565 109.268 39.4041 109.189 39.2635C109.11 39.1207 109.009 38.9993 108.886 38.8991C108.762 38.799 108.619 38.7223 108.457 38.669C108.298 38.6158 108.124 38.5891 107.936 38.5891C107.598 38.5891 107.303 38.6733 107.051 38.8416C106.8 39.0078 106.605 39.2507 106.466 39.5703C106.328 39.8878 106.258 40.2734 106.258 40.7273C106.258 41.1939 106.328 41.5859 106.466 41.9034C106.607 42.2209 106.803 42.4606 107.054 42.6225C107.306 42.7844 107.597 42.8654 107.927 42.8654C108.112 42.8654 108.284 42.8409 108.441 42.7919C108.601 42.7429 108.743 42.6715 108.866 42.5778C108.99 42.4819 109.092 42.3658 109.173 42.2294C109.256 42.093 109.314 41.9375 109.346 41.7628L110.746 41.7692C110.709 42.0696 110.619 42.3594 110.474 42.6385C110.331 42.9155 110.138 43.1637 109.896 43.3832C109.655 43.6005 109.367 43.7731 109.033 43.9009C108.7 44.0266 108.324 44.0895 107.904 44.0895C107.321 44.0895 106.799 43.9574 106.338 43.6932C105.88 43.429 105.518 43.0465 105.252 42.5458C104.988 42.0451 104.855 41.4389 104.855 40.7273C104.855 40.0135 104.99 39.4062 105.258 38.9055C105.527 38.4048 105.891 38.0234 106.351 37.7614C106.811 37.4971 107.329 37.365 107.904 37.365C108.284 37.365 108.635 37.4183 108.959 37.5248C109.285 37.6314 109.574 37.7869 109.825 37.9915C110.077 38.1939 110.281 38.4421 110.439 38.7361C110.599 39.0302 110.701 39.3668 110.746 39.7461Z" fill="#070707"/>
<path d="M112.638 37.4545H114.019V41.571H114.073L116.902 37.4545H118.113V44H116.729V39.8803H116.681L113.837 44H112.638V37.4545Z" fill="#070707"/>
<path d="M126.171 40.7273C126.171 41.441 126.036 42.0483 125.765 42.549C125.497 43.0497 125.13 43.4322 124.666 43.6964C124.203 43.9584 123.684 44.0895 123.106 44.0895C122.524 44.0895 122.002 43.9574 121.54 43.6932C121.078 43.429 120.712 43.0465 120.444 42.5458C120.175 42.0451 120.041 41.4389 120.041 40.7273C120.041 40.0135 120.175 39.4062 120.444 38.9055C120.712 38.4048 121.078 38.0234 121.54 37.7614C122.002 37.4971 122.524 37.365 123.106 37.365C123.684 37.365 124.203 37.4971 124.666 37.7614C125.13 38.0234 125.497 38.4048 125.765 38.9055C126.036 39.4062 126.171 40.0135 126.171 40.7273ZM124.768 40.7273C124.768 40.2649 124.699 39.875 124.56 39.5575C124.424 39.24 124.231 38.9993 123.982 38.8352C123.733 38.6712 123.441 38.5891 123.106 38.5891C122.772 38.5891 122.48 38.6712 122.23 38.8352C121.981 38.9993 121.787 39.24 121.649 39.5575C121.512 39.875 121.444 40.2649 121.444 40.7273C121.444 41.1896 121.512 41.5795 121.649 41.897C121.787 42.2145 121.981 42.4552 122.23 42.6193C122.48 42.7834 122.772 42.8654 123.106 42.8654C123.441 42.8654 123.733 42.7834 123.982 42.6193C124.231 42.4552 124.424 42.2145 124.56 41.897C124.699 41.5795 124.768 41.1896 124.768 40.7273Z" fill="#070707"/>
<path d="M128.096 44V37.4545H129.48V40.1552H132.289V37.4545H133.67V44H132.289V41.2962H129.48V44H128.096Z" fill="#070707"/>
<path d="M136.839 44H135.356L137.616 37.4545H139.399L141.656 44H140.173L138.533 38.9503H138.482L136.839 44ZM136.747 41.4272H140.249V42.5074H136.747V41.4272Z" fill="#070707"/>
<path d="M142.989 44V42.8878L143.174 42.8718C143.413 42.8526 143.606 42.7621 143.753 42.6001C143.9 42.4361 144.009 42.1751 144.082 41.8171C144.156 41.457 144.204 40.9734 144.226 40.3661L144.334 37.4545H148.777V44H147.431V38.5636H145.619L145.517 40.8423C145.483 41.5753 145.395 42.174 145.255 42.6385C145.116 43.103 144.895 43.446 144.59 43.6676C144.287 43.8892 143.873 44 143.347 44H142.989Z" fill="#070707"/>
<path d="M156.833 40.7273C156.833 41.441 156.697 42.0483 156.427 42.549C156.158 43.0497 155.792 43.4322 155.327 43.6964C154.865 43.9584 154.345 44.0895 153.768 44.0895C153.186 44.0895 152.664 43.9574 152.202 43.6932C151.739 43.429 151.374 43.0465 151.105 42.5458C150.837 42.0451 150.703 41.4389 150.703 40.7273C150.703 40.0135 150.837 39.4062 151.105 38.9055C151.374 38.4048 151.739 38.0234 152.202 37.7614C152.664 37.4971 153.186 37.365 153.768 37.365C154.345 37.365 154.865 37.4971 155.327 37.7614C155.792 38.0234 156.158 38.4048 156.427 38.9055C156.697 39.4062 156.833 40.0135 156.833 40.7273ZM155.43 40.7273C155.43 40.2649 155.36 39.875 155.222 39.5575C155.085 39.24 154.893 38.9993 154.643 38.8352C154.394 38.6712 154.102 38.5891 153.768 38.5891C153.433 38.5891 153.141 38.6712 152.892 38.8352C152.643 38.9993 152.449 39.24 152.31 39.5575C152.174 39.875 152.106 40.2649 152.106 40.7273C152.106 41.1896 152.174 41.5795 152.31 41.897C152.449 42.2145 152.643 42.4552 152.892 42.6193C153.141 42.7834 153.433 42.8654 153.768 42.8654C154.102 42.8654 154.394 42.7834 154.643 42.6193C154.893 42.4552 155.085 42.2145 155.222 41.897C155.36 41.5795 155.43 41.1896 155.43 40.7273Z" fill="#070707"/>
<path d="M158.758 44V37.4545H161.379C161.86 37.4545 162.262 37.5259 162.583 37.6687C162.905 37.8114 163.147 38.0096 163.309 38.2631C163.471 38.5145 163.552 38.8043 163.552 39.1324C163.552 39.3881 163.501 39.6129 163.398 39.8068C163.296 39.9986 163.156 40.1562 162.977 40.2798C162.8 40.4013 162.597 40.4876 162.369 40.5387V40.6026C162.619 40.6133 162.852 40.6836 163.069 40.8136C163.289 40.9435 163.467 41.1257 163.603 41.3601C163.739 41.5923 163.807 41.8693 163.807 42.191C163.807 42.5383 163.721 42.8484 163.549 43.1211C163.378 43.3917 163.126 43.6058 162.791 43.7635C162.457 43.9212 162.044 44 161.554 44H158.758ZM160.142 42.8686H161.27C161.656 42.8686 161.937 42.7951 162.114 42.6481C162.29 42.4989 162.379 42.3008 162.379 42.0536C162.379 41.8725 162.335 41.7127 162.248 41.5742C162.16 41.4357 162.036 41.327 161.874 41.2482C161.714 41.1694 161.523 41.13 161.302 41.13H160.142V42.8686ZM160.142 40.1935H161.168C161.357 40.1935 161.526 40.1605 161.673 40.0944C161.822 40.0263 161.939 39.9304 162.024 39.8068C162.111 39.6832 162.155 39.5351 162.155 39.3626C162.155 39.1261 162.071 38.9354 161.903 38.7905C161.736 38.6456 161.5 38.5731 161.193 38.5731H160.142V40.1935Z" fill="#070707"/>
</svg>
