<svg width="24" height="24" viewBox="0 0 24 24" xmlns="http://www.w3.org/2000/svg">
<path fill-rule="evenodd" clip-rule="evenodd" d="M14 1.75C14.9527 1.75 15.3564 1.75161 15.6853 1.79491C18.0411 2.10506 19.8949 3.95888 20.2051 6.31473C20.2484 6.64361 20.25 7.04732 20.25 8V19C20.25 19.4142 20.5858 19.75 21 19.75C21.4142 19.75 21.75 19.4142 21.75 19V8L21.75 7.92986V7.92981C21.75 7.06759 21.7501 6.55808 21.6923 6.11894C21.2935 3.08999 18.91 0.706512 15.8811 0.307743C15.4419 0.249929 14.9324 0.249953 14.0702 0.249992H14.0701L14 0.249996H10C8.06968 0.249996 6.48001 1.70849 6.27286 3.58359C6.12578 3.63581 5.98298 3.69667 5.84354 3.76771C4.94977 4.22311 4.22312 4.94977 3.76772 5.84354C3.48688 6.39472 3.36527 6.99834 3.30699 7.71173C3.24999 8.40935 3.24999 9.27485 3.25 10.367V10.4V22C3.25 22.2673 3.39232 22.5145 3.62355 22.6487C3.85479 22.7829 4.13998 22.7838 4.3721 22.6512L6.60917 21.3729C8.38866 20.356 9.13832 19.9375 9.91761 19.7733C10.6314 19.6229 11.3686 19.6229 12.0824 19.7733C12.8617 19.9375 13.6113 20.356 15.3908 21.3729L17.6279 22.6512C17.86 22.7838 18.1452 22.7829 18.3764 22.6487C18.6077 22.5145 18.75 22.2673 18.75 22V10.4V10.367V10.367C18.75 9.27483 18.75 8.40934 18.693 7.71173C18.6347 6.99834 18.5131 6.39472 18.2323 5.84354C17.7769 4.94977 17.0502 4.22311 16.1565 3.76771C15.6053 3.48688 15.0017 3.36527 14.2883 3.30698C13.5906 3.24999 12.7252 3.24999 11.633 3.25H11.633H11.6H10.4H10.367H10.367C9.35216 3.24999 8.53302 3.24999 7.86242 3.29572C8.15802 2.39802 9.00333 1.75 10 1.75H14ZM6.52453 5.10422C6.829 4.94909 7.21325 4.85271 7.83388 4.802C8.46326 4.75058 9.26752 4.75 10.4 4.75H11.6C12.7325 4.75 13.5367 4.75058 14.1661 4.802C14.7867 4.85271 15.171 4.94909 15.4755 5.10422C16.087 5.41581 16.5842 5.913 16.8958 6.52453C17.0509 6.829 17.1473 7.21325 17.198 7.83388C17.2494 8.46326 17.25 9.26752 17.25 10.4V20.7076L16.135 20.0705L16.011 19.9996C14.3937 19.0752 13.4298 18.5243 12.3916 18.3055C11.474 18.1122 10.526 18.1122 9.60836 18.3055C8.5702 18.5243 7.60627 19.0752 5.98896 19.9996L5.86496 20.0705L4.75 20.7076V10.4C4.75 9.26752 4.75058 8.46326 4.80201 7.83388C4.85271 7.21325 4.94909 6.829 5.10423 6.52453C5.41582 5.913 5.913 5.41581 6.52453 5.10422Z"/>
</svg>
