<svg width="16" height="16" viewBox="0 0 16 16" fill="none" xmlns="http://www.w3.org/2000/svg">
<path d="M5.60526 15H2.10526C1.49484 15 1 14.5052 1 13.8947V2.10526C1 1.49484 1.49484 1 2.10526 1H13.8947C14.5052 1 15 1.49484 15 2.10526V13.8947C15 14.5052 14.5052 15 13.8947 15H8.92105C8.31063 15 7.81579 14.5052 7.81579 13.8947V11.3158M6.15789 6.89474H5.05263V10.2105C5.05263 10.8209 5.54747 11.3158 6.15789 11.3158H9.84211C10.4525 11.3158 10.9474 10.8209 10.9474 10.2105V6.89474H9.84211M6.15789 6.89474V4.31579M6.15789 6.89474H9.84211M9.84211 6.89474V4.31579" stroke-width="1.2" stroke-linecap="round" stroke-linejoin="round"/>
</svg>
