<svg width="16" height="16" viewBox="0 0 16 16" fill="none" xmlns="http://www.w3.org/2000/svg">
<path d="M7.13699 12.125C9.46717 12.125 11.3562 10.2782 11.3562 8C11.3562 5.72183 9.46717 3.875 7.13699 3.875C4.8068 3.875 2.91781 5.72183 2.91781 8C2.91781 10.2782 4.8068 12.125 7.13699 12.125ZM7.13699 12.125H11.5936M13.274 13.0625V12.125H11.5936M13.274 13.0625V14H7.13699C3.74762 14 1 11.3137 1 8C1 4.68629 3.74762 2 7.13699 2C10.5264 2 13.274 4.68629 13.274 8C13.274 9.59781 12.6351 11.0498 11.5936 12.125M13.274 13.0625H15M9.43836 8C9.43836 9.24264 8.408 10.25 7.13699 10.25C5.86597 10.25 4.83562 9.24264 4.83562 8C4.83562 6.75736 5.86597 5.75 7.13699 5.75C8.408 5.75 9.43836 6.75736 9.43836 8Z" stroke-width="1.2" stroke-linecap="round" stroke-linejoin="round"/>
</svg>
