<svg width="16" height="16" viewBox="0 0 16 16" fill="none" xmlns="http://www.w3.org/2000/svg">
<path d="M9.8421 2.84211H6.89474C6.69126 2.84211 6.52632 3.00705 6.52632 3.21053V4.68421M9.8421 2.84211H12.7895C12.9929 2.84211 13.1579 3.00705 13.1579 3.21053V9.10526C13.1579 9.30874 12.9929 9.47368 12.7895 9.47368H11.3158M9.8421 2.84211V4.68421M4.86842 9.6579H4.90526M7.44737 9.6579H7.48421M6.52632 4.68421H9.8421M6.52632 4.68421H4.68421M9.8421 4.68421H10.5789C10.9859 4.68421 11.3158 5.01411 11.3158 5.42105V9.47368M11.3158 9.47368V11.3158M11.3158 11.3158V14.2632C11.3158 14.6701 10.9859 15 10.5789 15H1.73684C1.3299 15 1 14.6701 1 14.2632V5.42105C1 5.01411 1.3299 4.68421 1.73684 4.68421H4.68421M11.3158 11.3158H14.2632C14.6701 11.3158 15 10.9859 15 10.5789V1.73684C15 1.3299 14.6701 1 14.2632 1H5.42105C5.01411 1 4.68421 1.3299 4.68421 1.73684V4.68421M9.47368 9.8421C9.47368 11.6734 7.98915 13.1579 6.15789 13.1579C4.32663 13.1579 2.84211 11.6734 2.84211 9.8421C2.84211 8.01084 4.32663 6.52632 6.15789 6.52632C7.98915 6.52632 9.47368 8.01084 9.47368 9.8421Z" stroke-width="1.2" stroke-linecap="round"/>
</svg>
