<svg width="18" height="16" viewBox="0 0 18 16" fill="none" xmlns="http://www.w3.org/2000/svg">
<path d="M14.7752 6.4287V3.2973C14.7752 2.58082 14.1944 2 13.478 2H4.52205C3.80557 2 3.22475 2.58082 3.22475 3.2973V6.4287M14.7752 6.4287H17M14.7752 6.4287V9.64958M14.7752 9.64958V12.3784C14.7752 13.0949 14.1944 13.6757 13.478 13.6757H4.52205C3.80557 13.6757 3.22475 13.0949 3.22475 12.3784V9.64958M14.7752 9.64958H17M3.22475 6.4287H1M3.22475 6.4287V9.64958M3.22475 9.64958H1M12.6757 5.45946C12.6757 6.17594 12.0949 6.75676 11.3784 6.75676C10.6619 6.75676 10.0811 6.17594 10.0811 5.45946C10.0811 4.74298 10.6619 4.16216 11.3784 4.16216C12.0949 4.16216 12.6757 4.74298 12.6757 5.45946ZM7.91892 5.45946C7.91892 6.17594 7.3381 6.75676 6.62162 6.75676C5.90514 6.75676 5.32432 6.17594 5.32432 5.45946C5.32432 4.74298 5.90514 4.16216 6.62162 4.16216C7.3381 4.16216 7.91892 4.74298 7.91892 5.45946ZM12.6757 10.2162C12.6757 10.9327 12.0949 11.5135 11.3784 11.5135C10.6619 11.5135 10.0811 10.9327 10.0811 10.2162C10.0811 9.49974 10.6619 8.91892 11.3784 8.91892C12.0949 8.91892 12.6757 9.49974 12.6757 10.2162ZM7.91892 10.2162C7.91892 10.9327 7.3381 11.5135 6.62162 11.5135C5.90514 11.5135 5.32432 10.9327 5.32432 10.2162C5.32432 9.49974 5.90514 8.91892 6.62162 8.91892C7.3381 8.91892 7.91892 9.49974 7.91892 10.2162Z" stroke-width="1.2" stroke-linecap="round"/>
</svg>
