<svg width="16" height="16" viewBox="0 0 16 16" fill="none" xmlns="http://www.w3.org/2000/svg">
<path d="M8 7.63158L5.56522 15H4.69565C4.31145 15 4 14.6701 4 14.2632V13.8197C4 13.7473 4.01007 13.6753 4.0299 13.606L5.73913 7.63158L5.00543 7.11348C4.8119 6.97682 4.69565 6.74676 4.69565 6.50039V6.41841C4.69565 6.2516 4.75821 6.09163 4.86957 5.97368C4.98092 5.85574 5.13195 5.78947 5.28943 5.78947H6.08696M8 7.63158V5.78947M8 7.63158L10.4348 15H11.3043C11.6885 15 12 14.6701 12 14.2632V13.8197C12 13.7473 11.9899 13.6753 11.9701 13.606L10.2609 7.63158L10.9946 7.11348C11.1881 6.97682 11.3043 6.74676 11.3043 6.50039V6.41841C11.3043 6.2516 11.2418 6.09163 11.1304 5.97368C11.0191 5.85574 10.8681 5.78947 10.7106 5.78947H9.91304M8 5.78947H6.08696M8 5.78947V3.57895M8 5.78947H9.91304M6.08696 5.78947V3.65848C6.08696 3.12429 6.22402 2.60014 6.4835 2.14207L6.82647 1.53661C7.01505 1.2037 7.35471 1 7.72124 1H8M8 1V3.39474M8 1H8.27876C8.64529 1 8.98495 1.2037 9.17353 1.53661L9.5165 2.14207C9.77598 2.60014 9.91304 3.12429 9.91304 3.65848V5.78947M8 3.39474H7.82609V3.57895H8M8 3.39474V3.57895M8 3.39474H8.17391V3.57895H8" stroke-width="1.2" stroke-linecap="round" stroke-linejoin="round"/>
</svg>
