<svg width="16" height="18" viewBox="0 0 16 18" fill="none" xmlns="http://www.w3.org/2000/svg">
<path d="M12.2857 5.26667V15.72C12.2857 16.4269 11.7101 17 11 17H6.5C5.78992 17 5.21429 16.4269 5.21429 15.72V13.8M12.2857 5.26667H13.1429C13.6162 5.26667 14 4.88462 14 4.41333V2.70667H13.1429M12.2857 5.26667H11.4286C10.9552 5.26667 10.5714 4.88462 10.5714 4.41333V2.70667H11.4286M5.21429 13.8H7.14286C7.85294 13.8 8.42857 13.2269 8.42857 12.52V2.28C8.42857 1.57308 7.85294 1 7.14286 1H3.28571C2.57563 1 2 1.57308 2 2.28V12.52C2 13.2269 2.57563 13.8 3.28571 13.8H5.21429ZM3.71429 11.88H6.71429M13.1429 2.70667V1M13.1429 2.70667H11.4286M11.4286 2.70667V1M6.71429 4.2C6.71429 5.02475 6.04271 5.69333 5.21429 5.69333C4.38586 5.69333 3.71429 5.02475 3.71429 4.2C3.71429 3.37525 4.38586 2.70667 5.21429 2.70667C6.04271 2.70667 6.71429 3.37525 6.71429 4.2ZM6.71429 8.46667C6.71429 9.29141 6.04271 9.96 5.21429 9.96C4.38586 9.96 3.71429 9.29141 3.71429 8.46667C3.71429 7.64192 4.38586 6.97333 5.21429 6.97333C6.04271 6.97333 6.71429 7.64192 6.71429 8.46667Z" stroke-width="1.2" stroke-linecap="round"/>
</svg>
