<svg width="16" height="16" viewBox="0 0 16 16" fill="none" xmlns="http://www.w3.org/2000/svg">
<path d="M8.36842 5.94737V6.68421M9.8421 5.94737V6.68421M4.68421 7.78947H6.15789C6.36137 7.78947 6.52632 7.62453 6.52632 7.42105V5.21053C6.52632 5.00705 6.36137 4.84211 6.15789 4.84211H3.21053C3.00705 4.84211 2.84211 5.00705 2.84211 5.21053V7.42105C2.84211 7.62453 3.00705 7.78947 3.21053 7.78947H4.68421ZM4.68421 7.78947L4.31579 6.31579M13.8947 3H2.10526C1.49484 3 1 3.49484 1 4.10526V12.3158C1 12.8681 1.44772 13.3158 2 13.3158H14C14.5523 13.3158 15 12.8681 15 12.3158V4.10526C15 3.49484 14.5052 3 13.8947 3ZM4.68421 10.5526C4.68421 11.0613 4.27184 11.4737 3.76316 11.4737C3.25447 11.4737 2.84211 11.0613 2.84211 10.5526C2.84211 10.0439 3.25447 9.63158 3.76316 9.63158C4.27184 9.63158 4.68421 10.0439 4.68421 10.5526ZM13.1579 10.5526C13.1579 11.0613 12.7455 11.4737 12.2368 11.4737C11.7282 11.4737 11.3158 11.0613 11.3158 10.5526C11.3158 10.0439 11.7282 9.63158 12.2368 9.63158C12.7455 9.63158 13.1579 10.0439 13.1579 10.5526ZM12.0526 7.78947H12.7895C12.9929 7.78947 13.1579 7.62453 13.1579 7.42105V5.21053C13.1579 5.00705 12.9929 4.84211 12.7895 4.84211H12.0526C11.8492 4.84211 11.6842 5.00705 11.6842 5.21053V7.42105C11.6842 7.62453 11.8492 7.78947 12.0526 7.78947Z" stroke-width="1.2" stroke-linecap="round" stroke-linejoin="round"/>
<circle cx="6.58618" cy="10.4974" r="0.221053"/>
<circle cx="9.39539" cy="10.4974" r="0.221053"/>
</svg>
