<svg width="16" height="16" viewBox="0 0 16 16" xmlns="http://www.w3.org/2000/svg">
<path d="M7.99999 1L8.1787 0.427231L7.99999 0.371474L7.82128 0.427232L7.99999 1ZM1.09678 3.15385L0.918073 2.58108C0.70165 2.6486 0.541769 2.83235 0.504808 3.05603L1.09678 3.15385ZM7.99999 15L7.79419 15.5636L7.99999 15.6387L8.20578 15.5636L7.99999 15ZM14.9032 3.15385L15.4952 3.05603C15.4582 2.83235 15.2984 2.6486 15.0819 2.58108L14.9032 3.15385ZM8.90834 4.05128H9.50834C9.50834 3.80015 9.35194 3.57559 9.11639 3.48851C8.88084 3.40143 8.61598 3.47026 8.45262 3.661L8.90834 4.05128ZM8.90834 6.92308H8.30834C8.30834 7.25445 8.57697 7.52308 8.90834 7.52308V6.92308ZM10.9066 6.92308L11.3712 7.30283C11.5179 7.12337 11.5481 6.87547 11.4488 6.66603C11.3495 6.45659 11.1384 6.32308 10.9066 6.32308V6.92308ZM7.09171 11.5897H6.49171C6.49171 11.8434 6.65121 12.0696 6.89012 12.1549C7.12902 12.2401 7.3957 12.1659 7.55624 11.9695L7.09171 11.5897ZM7.09171 8.71795H7.69171C7.69171 8.38658 7.42308 8.11795 7.09171 8.11795V8.71795ZM4.91175 8.71795L4.45603 8.32767C4.30364 8.5056 4.26876 8.75596 4.36669 8.96878C4.46463 9.1816 4.67748 9.31795 4.91175 9.31795V8.71795ZM7.82128 0.427232L0.918073 2.58108L1.27549 3.72661L8.1787 1.57277L7.82128 0.427232ZM1.09678 3.15385C0.504808 3.05603 0.504756 3.05635 0.504698 3.0567C0.504671 3.05686 0.504608 3.05724 0.504555 3.05757C0.504449 3.05822 0.504322 3.059 0.504174 3.05992C0.503879 3.06175 0.5035 3.06412 0.503044 3.06702C0.502133 3.07281 0.500912 3.08073 0.499425 3.0907C0.496452 3.11064 0.492415 3.13883 0.487663 3.17482C0.478161 3.24678 0.465788 3.35002 0.453347 3.48096C0.42848 3.74267 0.403256 4.1159 0.40029 4.57182C0.39437 5.48176 0.477024 6.73164 0.834586 8.08586C1.55453 10.8126 3.39319 13.9566 7.79419 15.5636L8.20578 14.4364C4.25031 12.9921 2.63737 10.2131 1.99483 7.77952C1.67115 6.55362 1.59484 5.41408 1.60026 4.57962C1.60297 4.16334 1.626 3.82564 1.64797 3.59447C1.65894 3.47895 1.66963 3.39026 1.67734 3.33191C1.68119 3.30273 1.68429 3.28117 1.68631 3.26764C1.68732 3.26088 1.68805 3.25613 1.68847 3.25345C1.68869 3.25211 1.68882 3.25128 1.68887 3.25098C1.68889 3.25083 1.68889 3.25081 1.68887 3.25093C1.68887 3.25098 1.68884 3.25117 1.68883 3.2512C1.68879 3.25141 1.68875 3.25166 1.09678 3.15385ZM7.82128 1.57277L14.7245 3.72661L15.0819 2.58108L8.1787 0.427231L7.82128 1.57277ZM14.9032 3.15385C14.3113 3.25166 14.3112 3.25141 14.3112 3.25119C14.3112 3.25117 14.3111 3.25098 14.3111 3.25093C14.3111 3.25081 14.3111 3.25083 14.3111 3.25098C14.3112 3.25128 14.3113 3.2521 14.3115 3.25344C14.312 3.25613 14.3127 3.26088 14.3137 3.26764C14.3157 3.28116 14.3188 3.30273 14.3227 3.3319C14.3304 3.39026 14.3411 3.47895 14.352 3.59446C14.374 3.82564 14.397 4.16334 14.3997 4.57962C14.4052 5.41407 14.3288 6.55362 14.0052 7.77952C13.3626 10.2131 11.7497 12.9921 7.79419 14.4364L8.20578 15.5636C12.6068 13.9566 14.4455 10.8126 15.1654 8.08587C15.523 6.73164 15.6056 5.48176 15.5997 4.57182C15.5967 4.11591 15.5715 3.74267 15.5467 3.48096C15.5342 3.35003 15.5218 3.24679 15.5123 3.17482C15.5076 3.13883 15.5036 3.11064 15.5006 3.0907C15.4991 3.08073 15.4979 3.07282 15.497 3.06702C15.4965 3.06412 15.4961 3.06175 15.4958 3.05992C15.4957 3.059 15.4956 3.05822 15.4955 3.05757C15.4954 3.05725 15.4953 3.05686 15.4953 3.0567C15.4952 3.05635 15.4952 3.05603 14.9032 3.15385ZM8.30834 4.05128V6.92308H9.50834V4.05128H8.30834ZM8.90834 7.52308H10.9066V6.32308H8.90834V7.52308ZM10.4421 6.54333L6.62718 11.21L7.55624 11.9695L11.3712 7.30283L10.4421 6.54333ZM7.69171 11.5897V8.71795H6.49171V11.5897H7.69171ZM7.09171 8.11795H4.91175V9.31795H7.09171V8.11795ZM5.36747 9.10823L9.36406 4.44157L8.45262 3.661L4.45603 8.32767L5.36747 9.10823Z"/>
</svg>
