<svg width="16" height="16" viewBox="0 0 16 16" fill="none" xmlns="http://www.w3.org/2000/svg">
<path d="M5.46703 5.54054V1.75676C5.46703 1.33881 5.84176 1 6.30402 1H12.163C12.6253 1 13 1.33881 13 1.75676V3.83784C13 4.25578 12.6253 4.59459 12.163 4.59459H11.1168C10.8856 4.59459 10.6983 4.764 10.6983 4.97297V7.81081C10.6983 8.01978 10.8856 8.18919 11.1168 8.18919H12.163C12.6253 8.18919 13 8.528 13 8.94595V14.2432C13 14.6612 12.6253 15 12.163 15H6.30402C5.84176 15 5.46703 14.6612 5.46703 14.2432V12.3514M5.46703 5.54054H5.25778C5.02665 5.54054 4.83928 5.70995 4.83928 5.91892V6.62543C4.83928 6.85303 4.61865 7.02912 4.36887 7.00089L3.58055 6.9118C3.35121 6.88588 3.14204 7.03296 3.11338 7.24032L3.00327 8.03676C2.97649 8.23042 3.11702 8.41072 3.32775 8.45306L4.51157 8.69091C4.70304 8.72939 4.83928 8.88294 4.83928 9.06028V11.973C4.83928 12.1819 5.02665 12.3514 5.25778 12.3514H5.46703M5.46703 5.54054C5.92929 5.54054 6.30402 5.87935 6.30402 6.2973V11.5946C6.30402 12.0125 5.92929 12.3514 5.46703 12.3514M7.55952 2.51351C7.55952 2.72249 7.37215 2.89189 7.14102 2.89189C6.90989 2.89189 6.72252 2.72249 6.72252 2.51351C6.72252 2.30454 6.90989 2.13514 7.14102 2.13514C7.37215 2.13514 7.55952 2.30454 7.55952 2.51351ZM7.55952 13.4865C7.55952 13.6955 7.37215 13.8649 7.14102 13.8649C6.90989 13.8649 6.72252 13.6955 6.72252 13.4865C6.72252 13.2775 6.90989 13.1081 7.14102 13.1081C7.37215 13.1081 7.55952 13.2775 7.55952 13.4865ZM11.7445 2.51351C11.7445 2.72249 11.5571 2.89189 11.326 2.89189C11.0949 2.89189 10.9075 2.72249 10.9075 2.51351C10.9075 2.30454 11.0949 2.13514 11.326 2.13514C11.5571 2.13514 11.7445 2.30454 11.7445 2.51351ZM11.7445 13.4865C11.7445 13.6955 11.5571 13.8649 11.326 13.8649C11.0949 13.8649 10.9075 13.6955 10.9075 13.4865C10.9075 13.2775 11.0949 13.1081 11.326 13.1081C11.5571 13.1081 11.7445 13.2775 11.7445 13.4865Z" stroke-width="1.2"/>
</svg>
