<svg width="16" height="18" viewBox="0 0 16 18" fill="none" xmlns="http://www.w3.org/2000/svg">
<path d="M5.22667 12.7333V14.8667M5.22667 12.7333L4.53359 10.3867M5.22667 12.7333H10.7733M10.7733 12.7333V14.8667M10.7733 12.7333L11.4664 10.3867M5.22667 14.8667H10.7733M5.22667 14.8667C5.22667 15.2734 5.40223 15.6603 5.70832 15.9281L6.20944 16.3666C6.67611 16.7749 7.27512 17 7.89522 17H8.21961C8.89857 17 9.54971 16.7303 10.0298 16.2502L10.3208 15.9592C10.6105 15.6695 10.7733 15.2765 10.7733 14.8667M4.53359 10.3867C4.75026 10.5721 4.98198 10.7405 5.22667 10.8898C6.03474 11.3827 6.98421 11.6667 8 11.6667C9.01579 11.6667 9.96526 11.3827 10.7733 10.8898C11.018 10.7405 11.2497 10.5721 11.4664 10.3867M4.53359 10.3867C3.39087 9.40849 2.66667 7.95548 2.66667 6.33333C2.66667 3.38781 5.05448 1 8 1C10.9455 1 13.3333 3.38781 13.3333 6.33333C13.3333 7.95548 12.6091 9.40849 11.4664 10.3867M4.8 6.33333C4.8 4.33038 6.42371 2.70667 8.42667 2.70667" stroke-width="1.2" stroke-linecap="round" stroke-linejoin="round"/>
</svg>
