<svg width="16" height="16" viewBox="0 0 16 16" fill="none" xmlns="http://www.w3.org/2000/svg">
<path d="M9.26667 13.577H12.4093C13.146 13.577 13.7427 12.9803 13.7427 12.2437V5.98494M2.6 6.71967L7.732 2.321C8.23133 1.893 8.968 1.893 9.46733 2.321L13.7427 5.98494M14.6 6.71967L13.7427 5.98494M4.93333 13.577C4.90333 12.211 3.966 11.2737 2.6 11.2437M2.6 8.91033C3.19 8.917 3.74333 9.017 4.24933 9.19567C5.54467 9.65367 6.524 10.6323 6.98133 11.9277C7.16 12.4337 7.26 12.987 7.26667 13.577" stroke-width="1.2" stroke-linecap="round" stroke-linejoin="round"/>
<path fill-rule="evenodd" clip-rule="evenodd" d="M2.59886 12.9054C2.26617 12.9054 1.99772 13.1751 2.00001 13.5043C1.99772 13.8357 2.26846 14.1054 2.59886 14.1054C2.92926 14.1054 3.2 13.8357 3.2 13.5065C3.2 13.1774 2.93155 12.9054 2.59886 12.9054Z"/>
</svg>
