<svg width="16" height="16" viewBox="0 0 16 16" fill="none" xmlns="http://www.w3.org/2000/svg">
<path d="M2.84211 2.84211H2.84579M13.1579 2.84211H13.1616M13.1579 13.1579H13.1616M2.84211 13.1579H2.84579M6.15789 4.68421C7.084 4.68421 7.63158 5.50895 7.63158 6.52632M8.86371 4.30652C9.54959 4.9288 9.40097 5.90755 8.71737 6.66103M11.1704 5.91765C11.2389 6.84122 10.457 7.44831 9.44239 7.52358M11.6992 8.83867C11.0816 9.52875 10.1019 9.38676 9.34379 8.70827M9.3246 11.5543C8.40894 11.4156 7.99109 10.5181 8.14349 9.51226M6.11294 11.2904C5.63443 10.4975 6.0576 9.60257 6.92864 9.0769M4.3906 9.16626C4.56966 8.25763 5.48471 7.87985 6.48288 8.07655M4.48505 6.57419C5.20613 5.99306 6.15001 6.29162 6.7884 7.08376M1.73684 15H14.2632C14.6701 15 15 14.6701 15 14.2632V1.73684C15 1.3299 14.6701 1 14.2632 1H1.73684C1.3299 1 1 1.3299 1 1.73684V14.2632C1 14.6701 1.3299 15 1.73684 15ZM13.1579 8C13.1579 10.8486 10.8486 13.1579 8 13.1579C5.15137 13.1579 2.84211 10.8486 2.84211 8C2.84211 5.15137 5.15137 2.84211 8 2.84211C10.8486 2.84211 13.1579 5.15137 13.1579 8ZM9.47368 8C9.47368 8.81389 8.81389 9.47368 8 9.47368C7.18611 9.47368 6.52632 8.81389 6.52632 8C6.52632 7.18611 7.18611 6.52632 8 6.52632C8.81389 6.52632 9.47368 7.18611 9.47368 8Z" stroke-width="1.2" stroke-linecap="round" stroke-linejoin="round"/>
</svg>
