<svg width="18" height="16" viewBox="0 0 18 16" fill="none" xmlns="http://www.w3.org/2000/svg">
<path d="M15.2933 2.64V11.0267C15.2933 11.579 14.8456 12.0267 14.2933 12.0267H3.70667C3.15438 12.0267 2.70667 11.579 2.70667 11.0267V2.64M15.2933 2.64H2.70667M15.2933 2.64C15.2933 2.28654 15.5799 2 15.9333 2H16.1467C16.6179 2 17 2.38205 17 2.85333V10.7333C17 12.3902 15.6569 13.7333 14 13.7333H3C1.89543 13.7333 1 12.8379 1 11.7333V2.85333C1 2.38205 1.38205 2 1.85333 2H2.06667C2.42013 2 2.70667 2.28654 2.70667 2.64M11.4533 3.92H11.4576M13.16 3.92H13.1643M8.89333 9.46667L10.1733 7.12H7.61333L8.89333 4.77333" stroke-width="1.2" stroke-linecap="round" stroke-linejoin="round"/>
</svg>
