<svg width="24" height="24" viewBox="0 0 24 24" xmlns="http://www.w3.org/2000/svg">
<path fill-rule="evenodd" clip-rule="evenodd" d="M10.1668 2.75C11.0299 2.75 11.6428 2.75035 12.126 2.78059C12.6031 2.81045 12.9034 2.86739 13.1449 2.95831C14.0209 3.28798 14.7121 3.97927 15.0418 4.85519C15.1327 5.09676 15.1897 5.39702 15.2195 5.87417C15.2425 6.24062 15.2482 6.68171 15.2497 7.25H14.4001H14.3671C13.275 7.24999 12.4095 7.24999 11.7119 7.30699C10.9985 7.36527 10.3948 7.48688 9.84367 7.76772C8.9499 8.22312 8.22324 8.94978 7.76784 9.84355C7.487 10.3947 7.3654 10.9983 7.30711 11.7117C7.25011 12.4094 7.25012 13.2748 7.25012 14.367V14.367V14.4V15.2495C6.68184 15.2481 6.24074 15.2424 5.8743 15.2194C5.39714 15.1896 5.09689 15.1326 4.85532 15.0417C3.97939 14.712 3.28811 14.0207 2.95843 13.1448C2.86751 12.9032 2.81058 12.603 2.78071 12.1258C2.75047 11.6427 2.75013 11.0298 2.75013 10.1667L2.75013 8.4C2.75013 7.26752 2.75071 6.46327 2.80213 5.83389C2.85284 5.21326 2.94922 4.82901 3.10436 4.52454C3.41594 3.91301 3.91313 3.41582 4.52466 3.10423C4.82913 2.9491 5.21338 2.85272 5.83401 2.80201C6.46339 2.75059 7.26765 2.75 8.40013 2.75L10.1668 2.75ZM7.25296 16.7496C6.6746 16.7482 6.19108 16.7422 5.78059 16.7165C5.23374 16.6823 4.76654 16.611 4.32694 16.4456C3.04674 15.9637 2.03641 14.9534 1.55457 13.6732C1.38912 13.2336 1.31787 12.7664 1.28364 12.2195C1.25012 11.684 1.25012 11.0242 1.25013 10.1917L1.25013 10.1667L1.25013 8.4L1.25013 8.36701L1.25013 8.36689C1.25012 7.2748 1.25012 6.40934 1.30711 5.71174C1.3654 4.99835 1.48701 4.39472 1.76785 3.84355C2.22324 2.94978 2.9499 2.22312 3.84367 1.76772C4.39485 1.48689 4.99847 1.36528 5.71186 1.30699C6.40944 1.25 7.27488 1.25 8.36694 1.25L8.36713 1.25L8.40013 1.25L10.1668 1.25L10.1919 1.25C11.0243 1.25 11.6842 1.25 12.2197 1.28352C12.7665 1.31774 13.2337 1.389 13.6733 1.55445C14.9535 2.03628 15.9638 3.04662 16.4457 4.32682C16.6111 4.76642 16.6824 5.23361 16.7166 5.78047C16.7423 6.19096 16.7483 6.67448 16.7497 7.25284C17.3395 7.25771 17.8475 7.27096 18.2884 7.30699C19.0018 7.36527 19.6054 7.48688 20.1566 7.76772C21.0503 8.22312 21.777 8.94977 22.2324 9.84354C22.5132 10.3947 22.6348 10.9983 22.6931 11.7117C22.7501 12.4093 22.7501 13.2748 22.7501 14.367V14.367V14.4V15.6V15.633V15.6331C22.7501 16.7252 22.7501 17.5907 22.6931 18.2883C22.6348 19.0017 22.5132 19.6053 22.2324 20.1565C21.777 21.0502 21.0503 21.7769 20.1566 22.2323C19.6054 22.5131 19.0018 22.6347 18.2884 22.693C17.5908 22.75 16.7253 22.75 15.6332 22.75H15.6331H15.6001H14.4001H14.3671H14.367C13.2749 22.75 12.4095 22.75 11.7119 22.693C10.9985 22.6347 10.3948 22.5131 9.84367 22.2323C8.9499 21.7769 8.22324 21.0502 7.76784 20.1565C7.487 19.6053 7.3654 19.0017 7.30711 18.2883C7.27109 17.8474 7.25783 17.3394 7.25296 16.7496ZM15.6001 8.75C16.7326 8.75 17.5369 8.75058 18.1662 8.80201C18.7869 8.85271 19.1711 8.94909 19.4756 9.10423C20.0871 9.41582 20.5843 9.913 20.8959 10.5245C21.051 10.829 21.1474 11.2133 21.1981 11.8339C21.2495 12.4633 21.2501 13.2675 21.2501 14.4V15.6C21.2501 16.7325 21.2495 17.5367 21.1981 18.1661C21.1474 18.7867 21.051 19.171 20.8959 19.4755C20.5843 20.087 20.0871 20.5842 19.4756 20.8958C19.1711 21.0509 18.7869 21.1473 18.1662 21.198C17.5369 21.2494 16.7326 21.25 15.6001 21.25H14.4001C13.2676 21.25 12.4634 21.2494 11.834 21.198C11.2134 21.1473 10.8291 21.0509 10.5247 20.8958C9.91313 20.5842 9.41594 20.087 9.10435 19.4755C8.94921 19.171 8.85284 18.7867 8.80213 18.1661C8.75071 17.5367 8.75012 16.7325 8.75012 15.6V14.4C8.75012 13.2675 8.75071 12.4633 8.80213 11.8339C8.85284 11.2133 8.94921 10.829 9.10435 10.5245C9.41594 9.913 9.91313 9.41582 10.5247 9.10423C10.8291 8.94909 11.2134 8.85271 11.834 8.80201C12.4634 8.75058 13.2676 8.75 14.4001 8.75H15.6001Z"/>
</svg>
