<svg width="24" height="24" viewBox="0 0 24 24" fill="none" xmlns="http://www.w3.org/2000/svg">
<path d="M20.0033 7.99833H16.0017C15.4492 7.99833 15.0013 7.55043 15.0013 6.99792V2.99625" stroke-width="1.5" stroke-linecap="round" stroke-linejoin="round"/>
<path d="M5.9975 7.99833V4.99708C5.9975 3.89205 6.8933 2.99625 7.99833 2.99625H15.1733C15.7039 2.99625 16.2128 3.20724 16.5879 3.58249L19.4171 6.41167C19.7923 6.78681 20.0033 7.29565 20.0033 7.82626V19.0029C20.0033 20.1079 19.1075 21.0037 18.0025 21.0037H7.99833C6.8933 21.0037 5.9975 20.1079 5.9975 19.0029V18.0025" stroke-width="1.5" stroke-linecap="round" stroke-linejoin="round"/>
<path d="M6.38866 10.9996C6.46883 11.0789 6.49318 11.1987 6.45031 11.303C6.40745 11.4073 6.30584 11.4754 6.19308 11.4754C6.08032 11.4754 5.97871 11.4073 5.93584 11.303C5.89298 11.1987 5.91733 11.0789 5.9975 10.9996C6.10632 10.8916 6.28184 10.8916 6.39066 10.9996" stroke-width="1.5" stroke-linecap="round" stroke-linejoin="round"/>
<path d="M13.0004 11.95C11.4628 11.7146 9.89938 12.1653 8.72294 13.1829C7.54651 14.2005 6.8754 15.6827 6.88686 17.2382C6.88843 17.4941 6.90883 17.7496 6.94789 18.0025" stroke-width="1.5" stroke-linecap="round" stroke-linejoin="round"/>
<rect x="2.99625" y="7.99833" width="10.0042" height="10.0042" rx="3" stroke-width="1.5" stroke-linecap="round" stroke-linejoin="round"/>
</svg>
