<svg width="16" height="16" viewBox="0 0 16 16" xmlns="http://www.w3.org/2000/svg">
<path fill-rule="evenodd" clip-rule="evenodd" d="M1.39999 3.99999C1.39999 3.66862 1.66862 3.39999 1.99999 3.39999H14C14.3314 3.39999 14.6 3.66862 14.6 3.99999C14.6 4.33136 14.3314 4.59999 14 4.59999H1.99999C1.66862 4.59999 1.39999 4.33136 1.39999 3.99999ZM1.39999 7.99999C1.39999 7.66862 1.66862 7.39999 1.99999 7.39999H7.33333C7.6647 7.39999 7.93333 7.66862 7.93333 7.99999C7.93333 8.33136 7.6647 8.59999 7.33333 8.59999H1.99999C1.66862 8.59999 1.39999 8.33136 1.39999 7.99999ZM1.99999 11.4C1.66862 11.4 1.39999 11.6686 1.39999 12C1.39999 12.3314 1.66862 12.6 1.99999 12.6H10.6667C10.998 12.6 11.2667 12.3314 11.2667 12C11.2667 11.6686 10.998 11.4 10.6667 11.4H1.99999Z"/>
</svg>
