<svg width="24" height="24" viewBox="0 0 24 24" xmlns="http://www.w3.org/2000/svg">
<path fill-rule="evenodd" clip-rule="evenodd" d="M11.3707 0.815402C11.7817 0.695691 12.2183 0.695691 12.6293 0.815402C12.9019 0.894831 13.1295 1.03162 13.3429 1.18806C13.5435 1.3352 13.7699 1.52924 14.0301 1.75225L14.0301 1.75228L14.05 1.76933L15.314 2.85278C15.5876 3.08731 15.6438 3.13034 15.6979 3.15961C15.7604 3.19339 15.8273 3.21814 15.8966 3.23312C15.9568 3.24609 16.0274 3.25 16.3878 3.25L17.6 3.25L17.6289 3.25C18.0243 3.24999 18.3653 3.24998 18.6463 3.27293C18.9428 3.29715 19.2377 3.35064 19.5215 3.49524C19.9448 3.71095 20.2891 4.05516 20.5048 4.47852C20.6494 4.76231 20.7028 5.05722 20.7271 5.35373C20.75 5.63463 20.75 5.97567 20.75 6.37098L20.75 6.37108L20.75 6.4L20.75 7.61218C20.75 7.97258 20.7539 8.04324 20.7669 8.10336C20.7819 8.17275 20.8066 8.23965 20.8404 8.30207C20.8697 8.35616 20.9127 8.41236 21.1472 8.68599L22.2307 9.95001L22.2477 9.96988L22.2478 9.96995C22.4708 10.2301 22.6648 10.4565 22.8119 10.6571C22.9684 10.8705 23.1052 11.0981 23.1846 11.3707C23.3043 11.7817 23.3043 12.2183 23.1846 12.6293C23.1052 12.9019 22.9684 13.1295 22.8119 13.3429C22.6648 13.5435 22.4708 13.7699 22.2478 14.0301L22.2477 14.0301L22.2307 14.05L21.1472 15.314C20.9127 15.5876 20.8697 15.6438 20.8404 15.6979C20.8066 15.7604 20.7819 15.8273 20.7669 15.8966C20.7539 15.9568 20.75 16.0274 20.75 16.3878L20.75 17.6L20.75 17.6289L20.75 17.629C20.75 18.0243 20.75 18.3654 20.7271 18.6463C20.7028 18.9428 20.6494 19.2377 20.5048 19.5215C20.2891 19.9448 19.9448 20.2891 19.5215 20.5048C19.2377 20.6494 18.9428 20.7028 18.6463 20.7271C18.3654 20.75 18.0243 20.75 17.629 20.75L17.6289 20.75L17.6 20.75L16.3878 20.75C16.0274 20.75 15.9568 20.7539 15.8966 20.7669C15.8273 20.7819 15.7604 20.8066 15.6979 20.8404C15.6438 20.8697 15.5876 20.9127 15.314 21.1472L14.05 22.2307L14.0301 22.2477L14.0301 22.2478L14.03 22.2478C13.7699 22.4708 13.5435 22.6648 13.3429 22.8119C13.1295 22.9684 12.9019 23.1052 12.6293 23.1846C12.2183 23.3043 11.7817 23.3043 11.3707 23.1846C11.0981 23.1052 10.8705 22.9684 10.6571 22.8119C10.4565 22.6648 10.2302 22.4708 9.97003 22.2478L9.96988 22.2477L9.95001 22.2307L8.68599 21.1472C8.41236 20.9127 8.35616 20.8697 8.30208 20.8404C8.23965 20.8066 8.17274 20.7819 8.10336 20.7669C8.04325 20.7539 7.97258 20.75 7.61219 20.75L6.36579 20.75L6.33686 20.75L6.33677 20.75C5.94145 20.75 5.60042 20.75 5.31952 20.7271C5.02301 20.7028 4.72809 20.6494 4.44431 20.5048C4.02094 20.2891 3.67674 19.9448 3.46102 19.5215C3.31643 19.2377 3.26294 18.9428 3.23871 18.6463C3.21576 18.3653 3.21577 18.0243 3.21579 17.6289L3.21579 17.6L3.21579 16.3801C3.21579 16.0228 3.21194 15.9527 3.19917 15.8931C3.18443 15.8242 3.16007 15.7578 3.1268 15.6957C3.09798 15.642 3.05562 15.586 2.82462 15.3134L1.74254 14.0364L1.72572 14.0166C1.50653 13.7579 1.31572 13.5327 1.171 13.3332C1.01706 13.1209 0.882592 12.8948 0.804472 12.6244C0.686654 12.2165 0.686654 11.7835 0.804472 11.3756C0.882592 11.1052 1.01706 10.8791 1.171 10.6668C1.31571 10.4673 1.5065 10.2421 1.72567 9.98349L1.72571 9.98345L1.72571 9.98344L1.74254 9.96359L2.82462 8.6866C3.05562 8.41399 3.09798 8.35805 3.1268 8.30428C3.16007 8.24222 3.18443 8.17579 3.19917 8.10694C3.21194 8.04728 3.21579 7.97722 3.21579 7.6199L3.21579 6.4L3.21579 6.37109L3.21579 6.37109C3.21577 5.97573 3.21576 5.63466 3.23871 5.35373C3.26294 5.05722 3.31643 4.76231 3.46102 4.47852C3.67674 4.05516 4.02094 3.71095 4.44431 3.49524C4.72809 3.35064 5.02301 3.29715 5.31952 3.27293C5.60044 3.24998 5.94151 3.24999 6.33687 3.25L6.33688 3.25L6.36579 3.25L7.61219 3.25C7.97258 3.25 8.04325 3.24609 8.10336 3.23312C8.17274 3.21814 8.23965 3.19339 8.30208 3.15961C8.35616 3.13034 8.41236 3.08731 8.68599 2.85278L9.95001 1.76933L9.9699 1.75228L9.96991 1.75228C10.2301 1.52925 10.4565 1.3352 10.6571 1.18806C10.8705 1.03162 11.0981 0.894831 11.3707 0.815402ZM12.2098 2.25555C12.0728 2.21564 11.9272 2.21564 11.7903 2.25555C11.7521 2.26667 11.6856 2.29395 11.5441 2.39772C11.395 2.50707 11.212 2.66324 10.9262 2.90822L9.66218 3.99166L9.61984 4.02799C9.4122 4.20627 9.22906 4.36352 9.01599 4.47882C8.82871 4.58017 8.628 4.65442 8.41985 4.69935C8.18304 4.75046 7.94166 4.75026 7.66798 4.75003L7.66798 4.75003L7.61219 4.75L6.36579 4.75C5.93337 4.75 5.65417 4.75059 5.44166 4.76795C5.23792 4.78459 5.16238 4.81285 5.12529 4.83175C4.98417 4.90365 4.86944 5.01839 4.79753 5.15951C4.77864 5.19659 4.75038 5.27213 4.73373 5.47588C4.71637 5.68838 4.71579 5.96759 4.71579 6.4L4.71579 7.6199L4.71582 7.67521C4.71604 7.94659 4.71624 8.18595 4.66594 8.42093C4.62172 8.62749 4.54864 8.82679 4.44884 9.01296C4.3353 9.22476 4.1804 9.40725 4.00479 9.61415L3.96902 9.65632L2.88694 10.9333C2.64611 11.2175 2.49269 11.3993 2.38528 11.5474C2.2834 11.6879 2.25655 11.7538 2.24556 11.7919C2.20629 11.9278 2.20629 12.0722 2.24556 12.2081C2.25655 12.2462 2.2834 12.3121 2.38528 12.4526C2.49269 12.6007 2.64611 12.7825 2.88694 13.0667L3.96902 14.3437L4.00479 14.3859L4.0048 14.3859C4.18041 14.5928 4.3353 14.7752 4.44884 14.987C4.54864 15.1732 4.62172 15.3725 4.66594 15.5791C4.71624 15.8141 4.71604 16.0534 4.71582 16.3248L4.71579 16.3801L4.71579 17.6C4.71579 18.0324 4.71637 18.3116 4.73373 18.5241C4.75038 18.7279 4.77864 18.8034 4.79753 18.8405C4.86944 18.9816 4.98417 19.0964 5.12529 19.1683C5.16238 19.1872 5.23792 19.2154 5.44166 19.2321C5.65417 19.2494 5.93337 19.25 6.36579 19.25L7.61219 19.25L7.66798 19.25L7.66801 19.25C7.94168 19.2497 8.18305 19.2495 8.41985 19.3007C8.628 19.3456 8.82871 19.4198 9.01599 19.5212C9.22906 19.6365 9.4122 19.7937 9.61985 19.972L9.66218 20.0083L10.9262 21.0918C11.212 21.3368 11.395 21.4929 11.5441 21.6023C11.6856 21.7061 11.7521 21.7333 11.7902 21.7445C11.9272 21.7844 12.0728 21.7844 12.2098 21.7445C12.2479 21.7333 12.3144 21.7061 12.4559 21.6023C12.605 21.4929 12.788 21.3368 13.0738 21.0918L14.3378 20.0083L14.3802 19.972C14.5878 19.7937 14.7709 19.6365 14.984 19.5212C15.1713 19.4198 15.372 19.3456 15.5802 19.3007C15.817 19.2495 16.0583 19.2497 16.332 19.25L16.332 19.25L16.3878 19.25L17.6 19.25C18.0324 19.25 18.3116 19.2494 18.5241 19.2321C18.7279 19.2154 18.8034 19.1872 18.8405 19.1683C18.9816 19.0964 19.0964 18.9816 19.1683 18.8405C19.1872 18.8034 19.2154 18.7279 19.2321 18.5241C19.2494 18.3116 19.25 18.0324 19.25 17.6L19.25 16.3878L19.25 16.332L19.25 16.332C19.2497 16.0583 19.2495 15.817 19.3007 15.5802C19.3456 15.372 19.4198 15.1713 19.5212 14.984C19.6365 14.771 19.7937 14.5878 19.972 14.3802L20.0083 14.3378L21.0918 13.0738C21.3368 12.788 21.4929 12.605 21.6023 12.4559C21.7061 12.3144 21.7333 12.2479 21.7445 12.2098C21.7844 12.0728 21.7844 11.9272 21.7445 11.7902C21.7333 11.7521 21.7061 11.6856 21.6023 11.5441C21.4929 11.395 21.3368 11.212 21.0918 10.9262L20.0083 9.66218L19.972 9.61983L19.972 9.61979C19.7937 9.41217 19.6365 9.22904 19.5212 9.01599C19.4198 8.82871 19.3456 8.62799 19.3007 8.41984C19.2495 8.18305 19.2497 7.94168 19.25 7.66801L19.25 7.66798L19.25 7.61218L19.25 6.4C19.25 5.96759 19.2494 5.68838 19.2321 5.47588C19.2154 5.27213 19.1872 5.19659 19.1683 5.15951C19.0964 5.01839 18.9816 4.90365 18.8405 4.83175C18.8034 4.81285 18.7279 4.78459 18.5241 4.76795C18.3116 4.75059 18.0324 4.75 17.6 4.75L16.3878 4.75L16.332 4.75003C16.0583 4.75026 15.817 4.75046 15.5802 4.69935C15.372 4.65442 15.1713 4.58017 14.984 4.47882C14.771 4.36352 14.5878 4.20627 14.3802 4.02799L14.3378 3.99166L13.0738 2.90822C12.788 2.66324 12.605 2.50707 12.4559 2.39772C12.3144 2.29395 12.2479 2.26667 12.2098 2.25555ZM12 7.25C12.4142 7.25 12.75 7.58579 12.75 8L12.75 13C12.75 13.4142 12.4142 13.75 12 13.75C11.5857 13.75 11.25 13.4142 11.25 13L11.25 8C11.25 7.58579 11.5857 7.25 12 7.25ZM12 17C12.5522 17 13 16.5523 13 16C13 15.4477 12.5522 15 12 15C11.4477 15 11 15.4477 11 16C11 16.5523 11.4477 17 12 17Z"/>
</svg>
