<svg width="24" height="24" viewBox="0 0 24 24" xmlns="http://www.w3.org/2000/svg">
<path d="M7.20873 9.22711H10.8863" stroke-width="1.5" stroke-linecap="round" stroke-linejoin="round" fill="none"/>
<path d="M9.96687 12.9046L12.725 12.9046" stroke-width="1.5" stroke-linecap="round" stroke-linejoin="round" fill="none"/>
<path d="M9.96687 16.5822L12.725 16.5822" stroke-width="1.5" stroke-linecap="round" stroke-linejoin="round" fill="none"/>
<circle cx="7.20873" cy="12.9046" r="0.919381" stroke="transparent" stroke-linecap="round"/>
<circle cx="7.20873" cy="16.5822" r="0.919381" stroke="transparent" stroke-linecap="round"/>
<path d="M17.3219 11.9852V2.79144L14.828 3.89987C14.2658 4.14973 13.9847 4.27466 13.7002 4.30592C13.3883 4.34019 13.0727 4.29405 12.7836 4.17189C12.52 4.06049 12.2865 3.8603 11.8194 3.45992C11.1991 2.92825 10.889 2.66242 10.5457 2.54858C10.1699 2.42393 9.76386 2.42393 9.38802 2.54858C9.04479 2.66242 8.73465 2.92825 8.11437 3.45992C7.64726 3.8603 7.41371 4.06049 7.1501 4.17189C6.86102 4.29405 6.54549 4.34019 6.23353 4.30592C5.94907 4.27466 5.66797 4.14973 5.10578 3.89987L2.61182 2.79144V15.295C2.61182 17.3546 2.61182 18.3844 3.01265 19.1711C3.36523 19.8631 3.92782 20.4257 4.61979 20.7782C5.40645 21.1791 6.43625 21.1791 8.49586 21.1791H19.1607" stroke-width="1.5" stroke-linecap="round" stroke-linejoin="round" fill="none"/>
<path d="M17.3219 11.9853H18.0574C19.0872 11.9853 19.6021 11.9853 19.9955 12.1857C20.3414 12.362 20.6227 12.6433 20.799 12.9892C20.9994 13.3826 20.9994 13.8975 20.9994 14.9273V19.3403C20.9994 20.3558 20.1762 21.1791 19.1607 21.1791C18.1452 21.1791 17.3219 20.3558 17.3219 19.3403V11.9853Z" stroke-width="1.5" stroke-linecap="round" stroke-linejoin="round" fill="none"/>
</svg>
