<svg width="24" height="24" viewBox="0 0 24 24" fill="none" xmlns="http://www.w3.org/2000/svg">
<path d="M20.0033 7.99833H16.0017C15.4492 7.99833 15.0013 7.55043 15.0013 6.99792V2.99625" stroke-width="1.5" stroke-linecap="round" stroke-linejoin="round"/>
<rect x="2.99625" y="7.99833" width="10.0042" height="10.0042" rx="3" stroke-width="1.5" stroke-linecap="round" stroke-linejoin="round"/>
<path d="M5.74738 11.2497L6.24758 14.7511H6.57672L7.99831 11.7499L9.41991 14.7511H9.74904L10.2493 11.2497" stroke-width="1.5" stroke-linecap="round" stroke-linejoin="round"/>
<path d="M5.9975 7.99833V4.99708C5.9975 3.89205 6.8933 2.99625 7.99833 2.99625H15.1733C15.7039 2.99625 16.2128 3.20724 16.5879 3.58249L19.4171 6.41167C19.7923 6.78681 20.0033 7.29565 20.0033 7.82626V19.0029C20.0033 20.1079 19.1075 21.0037 18.0025 21.0037H7.99833C6.8933 21.0037 5.9975 20.1079 5.9975 19.0029V18.0025" stroke-width="1.5" stroke-linecap="round" stroke-linejoin="round"/>
</svg>
